<svg version="1.1" id="Слой_1" xmlns="http://www.w3.org/2000/svg" xmlns:xlink="http://www.w3.org/1999/xlink" x="0px" y="0px" viewBox="0 0 128 128" enable-background="new 0 0 128 128" xml:space="preserve">
<g>
	<g>
		<g>
			<g>
				<g>
					<path fill="#FFFFFF" d="M15.5,29.9v68.3c0,6.7,5.4,12.1,12.1,12.1h84.9V29.9H28.8"></path>
				</g>
			</g>
			<g opacity="0.15">
				<g>
					<path d="M15.5,29.9v68.3c0,3.9,1.9,7.4,4.9,9.6c0-4,3.3-7.2,7.3-7.2h14.8l0-70.7H28.8H15.5z"></path>
				</g>
			</g>
			<g>
				<g>
					<path fill="#454B54" d="M112.5,113.2H27.6c-8.3,0-15.1-6.8-15.1-15V29.9c0-1.7,1.3-3,3-3s3,1.3,3,3v68.3c0,5,4.1,9,9.1,9h81.9
						V32.9H34.8c-1.7,0-3-1.3-3-3s1.3-3,3-3h77.7c1.7,0,3,1.3,3,3v80.3C115.5,111.8,114.2,113.2,112.5,113.2z"></path>
				</g>
			</g>
			<g>
				<g>
					
						<path fill="none" stroke="#62345B" stroke-width="3" stroke-linecap="round" stroke-linejoin="round" stroke-miterlimit="10" d="
						M36.5,98.1"></path>
				</g>
			</g>
			<g>
				<g>
					<path fill="#C7D7E2" d="M27.6,86.1L27.6,86.1c-6.7,0-12.1,5.4-12.1,12.1l0,0V29.9c0-6.7,5.4-12.1,12.1-12.1h0l5.7-0.1
						l-0.7,68.4H27.6z"></path>
				</g>
			</g>
			<g>
				<g>
					<path fill="#454B54" d="M15.5,101.1c-1.7,0-3-1.3-3-3V29.9c0-8.3,6.8-15.1,15.1-15.1l5.6-0.1c0.8,0,1.6,0.3,2.2,0.9
						c0.6,0.6,0.9,1.4,0.9,2.2l-0.7,68.4c0,1.6-1.4,3-3,3h-5c-1.7,0-3-1.3-3-3s1.3-3,3-3h2l0.6-62.3l-2.6,0.1
						c-5.1,0-9.2,4.1-9.2,9.1v68.3C18.5,99.8,17.2,101.1,15.5,101.1z"></path>
				</g>
			</g>
		</g>
	</g>
</g>
<g>
	<g>
		<g>
			<path fill="#C7D7E2" d="M52.2,58h20.3c1.7,0,3,1.3,3,3s-1.3,3-3,3H55.2v25.8h14.3V71.4c0-1.7,1.3-3,3-3s3,1.3,3,3v18.4h4.8
				c1.7,0,3,1.3,3,3s-1.3,3-3,3h-28c-1.7,0-3-1.3-3-3V61C49.2,59.3,50.5,58,52.2,58z"></path>
		</g>
	</g>
	<g>
		<g>
			<path fill="#C7D7E2" d="M84.4,64c-1.7,0-3-1.3-3-3s1.3-3,3-3h10.7v-6.2H72.5c-1.7,0-3-1.3-3-3s1.3-3,3-3h25.6c1.7,0,3,1.3,3,3v44
				c0,1.7-1.3,3-3,3h-6c-1.7,0-3-1.3-3-3s1.3-3,3-3h3V64H84.4z"></path>
		</g>
	</g>
</g>
</svg>